<mxfile host="app.diagrams.net" modified="2023-06-23T14:44:01.207Z" agent="Mozilla/5.0 (Windows NT 10.0; Win64; x64) AppleWebKit/537.36 (KHTML, like Gecko) Chrome/114.0.0.0 Safari/537.36" etag="5603KeUDNahLS75Cf3AQ" version="21.5.0" type="github">
  <diagram name="Page-1" id="DNmiFgfM4YhjzNva_zyY">
    <mxGraphModel dx="2062" dy="636" grid="1" gridSize="10" guides="1" tooltips="1" connect="1" arrows="1" fold="1" page="1" pageScale="1" pageWidth="827" pageHeight="1169" math="0" shadow="0">
      <root>
        <mxCell id="0" />
        <mxCell id="1" parent="0" />
        <mxCell id="ZeA2f_bc7f4KsvW4Euiv-3" value="" style="edgeStyle=orthogonalEdgeStyle;rounded=0;orthogonalLoop=1;jettySize=auto;html=1;" edge="1" parent="1" source="ZeA2f_bc7f4KsvW4Euiv-1" target="ZeA2f_bc7f4KsvW4Euiv-2">
          <mxGeometry relative="1" as="geometry">
            <Array as="points">
              <mxPoint x="390" y="120" />
              <mxPoint x="300" y="120" />
            </Array>
          </mxGeometry>
        </mxCell>
        <mxCell id="ZeA2f_bc7f4KsvW4Euiv-5" style="edgeStyle=orthogonalEdgeStyle;rounded=0;orthogonalLoop=1;jettySize=auto;html=1;entryX=0.5;entryY=0;entryDx=0;entryDy=0;" edge="1" parent="1" source="ZeA2f_bc7f4KsvW4Euiv-1" target="ZeA2f_bc7f4KsvW4Euiv-4">
          <mxGeometry relative="1" as="geometry">
            <Array as="points">
              <mxPoint x="390" y="120" />
              <mxPoint x="460" y="120" />
            </Array>
          </mxGeometry>
        </mxCell>
        <mxCell id="ZeA2f_bc7f4KsvW4Euiv-30" style="edgeStyle=orthogonalEdgeStyle;rounded=0;orthogonalLoop=1;jettySize=auto;html=1;entryX=0.5;entryY=0;entryDx=0;entryDy=0;" edge="1" parent="1" source="ZeA2f_bc7f4KsvW4Euiv-1" target="ZeA2f_bc7f4KsvW4Euiv-28">
          <mxGeometry relative="1" as="geometry">
            <Array as="points">
              <mxPoint x="390" y="120" />
              <mxPoint x="665" y="120" />
            </Array>
          </mxGeometry>
        </mxCell>
        <mxCell id="ZeA2f_bc7f4KsvW4Euiv-1" value="E-AMBASSADOR" style="rounded=1;whiteSpace=wrap;html=1;fillColor=#fa6800;fontColor=#000000;strokeColor=#C73500;" vertex="1" parent="1">
          <mxGeometry x="330" y="40" width="120" height="60" as="geometry" />
        </mxCell>
        <mxCell id="ZeA2f_bc7f4KsvW4Euiv-33" style="edgeStyle=orthogonalEdgeStyle;rounded=0;orthogonalLoop=1;jettySize=auto;html=1;" edge="1" parent="1" source="ZeA2f_bc7f4KsvW4Euiv-2" target="ZeA2f_bc7f4KsvW4Euiv-16">
          <mxGeometry relative="1" as="geometry">
            <Array as="points">
              <mxPoint x="300" y="250" />
              <mxPoint x="370" y="250" />
            </Array>
          </mxGeometry>
        </mxCell>
        <mxCell id="ZeA2f_bc7f4KsvW4Euiv-34" style="edgeStyle=orthogonalEdgeStyle;rounded=0;orthogonalLoop=1;jettySize=auto;html=1;entryX=0.5;entryY=0;entryDx=0;entryDy=0;" edge="1" parent="1" source="ZeA2f_bc7f4KsvW4Euiv-2" target="ZeA2f_bc7f4KsvW4Euiv-6">
          <mxGeometry relative="1" as="geometry">
            <Array as="points">
              <mxPoint x="300" y="250" />
              <mxPoint x="210" y="250" />
            </Array>
          </mxGeometry>
        </mxCell>
        <mxCell id="ZeA2f_bc7f4KsvW4Euiv-2" value="APP" style="rhombus;whiteSpace=wrap;html=1;rounded=1;fillColor=#f5f5f5;fontColor=#333333;strokeColor=#666666;" vertex="1" parent="1">
          <mxGeometry x="260" y="145" width="80" height="80" as="geometry" />
        </mxCell>
        <mxCell id="ZeA2f_bc7f4KsvW4Euiv-4" value="API" style="rhombus;whiteSpace=wrap;html=1;rounded=1;fillColor=#f5f5f5;fontColor=#333333;strokeColor=#666666;" vertex="1" parent="1">
          <mxGeometry x="420" y="150" width="80" height="80" as="geometry" />
        </mxCell>
        <mxCell id="ZeA2f_bc7f4KsvW4Euiv-35" style="edgeStyle=orthogonalEdgeStyle;rounded=0;orthogonalLoop=1;jettySize=auto;html=1;" edge="1" parent="1" source="ZeA2f_bc7f4KsvW4Euiv-6" target="ZeA2f_bc7f4KsvW4Euiv-21">
          <mxGeometry relative="1" as="geometry">
            <Array as="points">
              <mxPoint x="210" y="350" />
              <mxPoint x="140" y="350" />
            </Array>
          </mxGeometry>
        </mxCell>
        <mxCell id="ZeA2f_bc7f4KsvW4Euiv-36" style="edgeStyle=orthogonalEdgeStyle;rounded=0;orthogonalLoop=1;jettySize=auto;html=1;entryX=0.5;entryY=0.088;entryDx=0;entryDy=0;entryPerimeter=0;" edge="1" parent="1" source="ZeA2f_bc7f4KsvW4Euiv-6" target="ZeA2f_bc7f4KsvW4Euiv-26">
          <mxGeometry relative="1" as="geometry">
            <Array as="points">
              <mxPoint x="210" y="350" />
              <mxPoint x="270" y="350" />
            </Array>
          </mxGeometry>
        </mxCell>
        <mxCell id="ZeA2f_bc7f4KsvW4Euiv-6" value="AUH" style="whiteSpace=wrap;html=1;rounded=1;fillColor=#f8cecc;strokeColor=#b85450;" vertex="1" parent="1">
          <mxGeometry x="180" y="280" width="60" height="60" as="geometry" />
        </mxCell>
        <mxCell id="ZeA2f_bc7f4KsvW4Euiv-16" value="HOME PAGE" style="whiteSpace=wrap;html=1;rounded=1;fillColor=#f8cecc;strokeColor=#b85450;" vertex="1" parent="1">
          <mxGeometry x="330" y="280" width="80" height="60" as="geometry" />
        </mxCell>
        <mxCell id="ZeA2f_bc7f4KsvW4Euiv-43" style="edgeStyle=orthogonalEdgeStyle;rounded=0;orthogonalLoop=1;jettySize=auto;html=1;entryX=0.5;entryY=0;entryDx=0;entryDy=0;" edge="1" parent="1" source="ZeA2f_bc7f4KsvW4Euiv-21" target="ZeA2f_bc7f4KsvW4Euiv-37">
          <mxGeometry relative="1" as="geometry">
            <Array as="points">
              <mxPoint x="140" y="480" />
              <mxPoint x="80" y="480" />
            </Array>
          </mxGeometry>
        </mxCell>
        <mxCell id="ZeA2f_bc7f4KsvW4Euiv-47" style="edgeStyle=orthogonalEdgeStyle;rounded=0;orthogonalLoop=1;jettySize=auto;html=1;entryX=0.5;entryY=0;entryDx=0;entryDy=0;" edge="1" parent="1" source="ZeA2f_bc7f4KsvW4Euiv-21" target="ZeA2f_bc7f4KsvW4Euiv-42">
          <mxGeometry relative="1" as="geometry">
            <Array as="points">
              <mxPoint x="140" y="480" />
              <mxPoint x="340" y="480" />
            </Array>
          </mxGeometry>
        </mxCell>
        <mxCell id="ZeA2f_bc7f4KsvW4Euiv-48" style="edgeStyle=orthogonalEdgeStyle;rounded=0;orthogonalLoop=1;jettySize=auto;html=1;" edge="1" parent="1" source="ZeA2f_bc7f4KsvW4Euiv-21" target="ZeA2f_bc7f4KsvW4Euiv-41">
          <mxGeometry relative="1" as="geometry">
            <Array as="points">
              <mxPoint x="140" y="480" />
              <mxPoint x="210" y="480" />
            </Array>
          </mxGeometry>
        </mxCell>
        <mxCell id="ZeA2f_bc7f4KsvW4Euiv-21" value="LOGIN" style="rhombus;whiteSpace=wrap;html=1;rounded=1;fillColor=#fff2cc;strokeColor=#d6b656;" vertex="1" parent="1">
          <mxGeometry x="100" y="370" width="80" height="80" as="geometry" />
        </mxCell>
        <mxCell id="ZeA2f_bc7f4KsvW4Euiv-26" value="REGISTER" style="rhombus;whiteSpace=wrap;html=1;rounded=1;fillColor=#fff2cc;strokeColor=#d6b656;" vertex="1" parent="1">
          <mxGeometry x="230" y="370" width="80" height="80" as="geometry" />
        </mxCell>
        <mxCell id="ZeA2f_bc7f4KsvW4Euiv-32" value="" style="edgeStyle=orthogonalEdgeStyle;rounded=0;orthogonalLoop=1;jettySize=auto;html=1;" edge="1" parent="1" source="ZeA2f_bc7f4KsvW4Euiv-28" target="ZeA2f_bc7f4KsvW4Euiv-31">
          <mxGeometry relative="1" as="geometry" />
        </mxCell>
        <mxCell id="ZeA2f_bc7f4KsvW4Euiv-28" value="CUSTOMERS" style="rhombus;whiteSpace=wrap;html=1;rounded=1;fillColor=#f5f5f5;fontColor=#333333;strokeColor=#666666;" vertex="1" parent="1">
          <mxGeometry x="610" y="145" width="110" height="110" as="geometry" />
        </mxCell>
        <mxCell id="ZeA2f_bc7f4KsvW4Euiv-31" value="" style="whiteSpace=wrap;html=1;rounded=1;" vertex="1" parent="1">
          <mxGeometry x="605" y="290" width="120" height="60" as="geometry" />
        </mxCell>
        <mxCell id="ZeA2f_bc7f4KsvW4Euiv-37" value="HOMEPAGE" style="shape=trapezoid;perimeter=trapezoidPerimeter;whiteSpace=wrap;html=1;fixedSize=1;rounded=1;fillColor=#d5e8d4;strokeColor=#82b366;" vertex="1" parent="1">
          <mxGeometry x="20" y="525" width="120" height="60" as="geometry" />
        </mxCell>
        <mxCell id="ZeA2f_bc7f4KsvW4Euiv-41" value="PROFILE" style="shape=trapezoid;perimeter=trapezoidPerimeter;whiteSpace=wrap;html=1;fixedSize=1;rounded=1;fillColor=#d5e8d4;strokeColor=#82b366;" vertex="1" parent="1">
          <mxGeometry x="150" y="525" width="120" height="60" as="geometry" />
        </mxCell>
        <mxCell id="ZeA2f_bc7f4KsvW4Euiv-42" value="HISTORIQUES" style="shape=trapezoid;perimeter=trapezoidPerimeter;whiteSpace=wrap;html=1;fixedSize=1;rounded=1;fillColor=#d5e8d4;strokeColor=#82b366;" vertex="1" parent="1">
          <mxGeometry x="280" y="525" width="120" height="60" as="geometry" />
        </mxCell>
        <mxCell id="ZeA2f_bc7f4KsvW4Euiv-49" value="clients&lt;br style=&quot;font-size: 18px;&quot;&gt;- status(1er contact, signé, relancé, revocker)&lt;br style=&quot;font-size: 18px;&quot;&gt;-Nom&lt;br style=&quot;font-size: 18px;&quot;&gt;- Numero&lt;br style=&quot;font-size: 18px;&quot;&gt;- Addresse&lt;br style=&quot;font-size: 18px;&quot;&gt;- image de l&#39;entreprise&amp;nbsp;&lt;br style=&quot;font-size: 18px;&quot;&gt;- nom du gerant" style="whiteSpace=wrap;html=1;aspect=fixed;fontSize=18;" vertex="1" parent="1">
          <mxGeometry x="542.5" y="366" width="245" height="245" as="geometry" />
        </mxCell>
        <mxCell id="ZeA2f_bc7f4KsvW4Euiv-52" value="" style="edgeStyle=orthogonalEdgeStyle;rounded=0;orthogonalLoop=1;jettySize=auto;html=1;" edge="1" parent="1" source="ZeA2f_bc7f4KsvW4Euiv-50" target="ZeA2f_bc7f4KsvW4Euiv-51">
          <mxGeometry relative="1" as="geometry" />
        </mxCell>
        <mxCell id="ZeA2f_bc7f4KsvW4Euiv-50" value="embassador&lt;br&gt;1-Nom&lt;br&gt;-prenom&lt;br&gt;- numero&lt;br&gt;- Addresse&lt;br&gt;- email&amp;nbsp;" style="whiteSpace=wrap;html=1;aspect=fixed;" vertex="1" parent="1">
          <mxGeometry x="10" y="611" width="230" height="230" as="geometry" />
        </mxCell>
        <mxCell id="ZeA2f_bc7f4KsvW4Euiv-51" value="action&amp;nbsp;&lt;br style=&quot;font-size: 19px;&quot;&gt;validation&amp;nbsp;&lt;br style=&quot;font-size: 19px;&quot;&gt;-par email / sms&lt;br style=&quot;font-size: 19px;&quot;&gt;- activiation decompte&lt;br style=&quot;font-size: 19px;&quot;&gt;- enregistrer un client&lt;br style=&quot;font-size: 19px;&quot;&gt;- login / Register" style="shape=trapezoid;perimeter=trapezoidPerimeter;whiteSpace=wrap;html=1;fixedSize=1;fontSize=19;" vertex="1" parent="1">
          <mxGeometry x="310" y="629" width="235" height="194" as="geometry" />
        </mxCell>
        <mxCell id="ZeA2f_bc7f4KsvW4Euiv-56" style="edgeStyle=orthogonalEdgeStyle;rounded=0;orthogonalLoop=1;jettySize=auto;html=1;" edge="1" parent="1" source="ZeA2f_bc7f4KsvW4Euiv-54" target="ZeA2f_bc7f4KsvW4Euiv-55">
          <mxGeometry relative="1" as="geometry" />
        </mxCell>
        <mxCell id="ZeA2f_bc7f4KsvW4Euiv-54" value="Admin&amp;nbsp;&lt;br&gt;1-Nom&lt;br&gt;-prenom&lt;br&gt;" style="whiteSpace=wrap;html=1;aspect=fixed;" vertex="1" parent="1">
          <mxGeometry x="20" y="860" width="230" height="230" as="geometry" />
        </mxCell>
        <mxCell id="ZeA2f_bc7f4KsvW4Euiv-55" value="action&amp;nbsp;&lt;br style=&quot;font-size: 19px;&quot;&gt;validation&amp;nbsp;&lt;br style=&quot;font-size: 19px;&quot;&gt;- de compte de ambassador&lt;br style=&quot;font-size: 19px;&quot;&gt;- enregistrer un ambassador&lt;br style=&quot;font-size: 19px;&quot;&gt;- login / Register" style="shape=trapezoid;perimeter=trapezoidPerimeter;whiteSpace=wrap;html=1;fixedSize=1;fontSize=19;" vertex="1" parent="1">
          <mxGeometry x="320" y="878" width="280" height="194" as="geometry" />
        </mxCell>
        <mxCell id="ZeA2f_bc7f4KsvW4Euiv-57" value="role&amp;nbsp;&lt;br&gt;- Admin&lt;br&gt;- Ambassador" style="shape=parallelogram;perimeter=parallelogramPerimeter;whiteSpace=wrap;html=1;fixedSize=1;" vertex="1" parent="1">
          <mxGeometry x="660" y="818" width="120" height="60" as="geometry" />
        </mxCell>
        <mxCell id="ZeA2f_bc7f4KsvW4Euiv-59" value="" style="edgeStyle=orthogonalEdgeStyle;rounded=0;orthogonalLoop=1;jettySize=auto;html=1;" edge="1" parent="1" source="ZeA2f_bc7f4KsvW4Euiv-58" target="ZeA2f_bc7f4KsvW4Euiv-1">
          <mxGeometry relative="1" as="geometry" />
        </mxCell>
        <mxCell id="ZeA2f_bc7f4KsvW4Euiv-58" value="Date : 7 / 07 /2023" style="rounded=0;whiteSpace=wrap;html=1;" vertex="1" parent="1">
          <mxGeometry x="550" y="10" width="250" height="60" as="geometry" />
        </mxCell>
        <mxCell id="ZeA2f_bc7f4KsvW4Euiv-64" value="" style="edgeStyle=orthogonalEdgeStyle;rounded=0;orthogonalLoop=1;jettySize=auto;html=1;" edge="1" parent="1" source="ZeA2f_bc7f4KsvW4Euiv-61" target="ZeA2f_bc7f4KsvW4Euiv-63">
          <mxGeometry relative="1" as="geometry" />
        </mxCell>
        <mxCell id="ZeA2f_bc7f4KsvW4Euiv-61" value="" style="shape=cylinder3;whiteSpace=wrap;html=1;boundedLbl=1;backgroundOutline=1;size=15;" vertex="1" parent="1">
          <mxGeometry x="-160" y="10" width="60" height="80" as="geometry" />
        </mxCell>
        <mxCell id="ZeA2f_bc7f4KsvW4Euiv-65" style="edgeStyle=orthogonalEdgeStyle;rounded=0;orthogonalLoop=1;jettySize=auto;html=1;" edge="1" parent="1" source="ZeA2f_bc7f4KsvW4Euiv-63" target="ZeA2f_bc7f4KsvW4Euiv-1">
          <mxGeometry relative="1" as="geometry" />
        </mxCell>
        <mxCell id="ZeA2f_bc7f4KsvW4Euiv-63" value="ambassador.icebrain.fr" style="whiteSpace=wrap;html=1;fontSize=16;fillColor=#e3c800;fontColor=#000000;strokeColor=#B09500;" vertex="1" parent="1">
          <mxGeometry x="-50" y="20" width="240" height="60" as="geometry" />
        </mxCell>
      </root>
    </mxGraphModel>
  </diagram>
</mxfile>
